<?xml version="1.0" encoding="UTF-8" standalone="no"?>
<svg
   version="1.0"
   viewBox="0 0 58.897999 58.897998"
   preserveAspectRatio="xMidYMid"
   id="svg10"
   sodipodi:docname="dexie-cross.svg"
   inkscape:version="1.2 (dc2aedaf03, 2022-05-15)"
   xmlns:inkscape="http://www.inkscape.org/namespaces/inkscape"
   xmlns:sodipodi="http://sodipodi.sourceforge.net/DTD/sodipodi-0.dtd"
   xmlns="http://www.w3.org/2000/svg"
   xmlns:svg="http://www.w3.org/2000/svg">
  <defs
     id="defs14">
    <rect
       x="29.153196"
       y="7.2424607"
       width="45.655006"
       height="60.139927"
       id="rect2309" />
  </defs>
  <sodipodi:namedview
     id="namedview12"
     pagecolor="#505050"
     bordercolor="#eeeeee"
     borderopacity="1"
     inkscape:showpageshadow="0"
     inkscape:pageopacity="0"
     inkscape:pagecheckerboard="0"
     inkscape:deskcolor="#505050"
     inkscape:document-units="pt"
     showgrid="false"
     inkscape:zoom="7.7130463"
     inkscape:cx="36.626255"
     inkscape:cy="44.859059"
     inkscape:window-width="1920"
     inkscape:window-height="1009"
     inkscape:window-x="1912"
     inkscape:window-y="-8"
     inkscape:window-maximized="1"
     inkscape:current-layer="Layer_2" />
  <g
     transform="matrix(0.1,0,0,-0.1,-1,58.742891)"
     fill="#33383D"
     stroke="none"
     id="g8">
    <path
       d="M 97,506 C 31,488 10,466 10,414 c 0,-34 5,-47 25,-63 26,-19 104,-41 150,-41 23,0 25,4 25,43 v 43 l -70,11 c -127,20 -127,56 -1,76 45,7 71,16 71,24 0,16 -49,16 -113,-1 z"
       id="path2" />
    <path
       d="m 10,299 c 0,-24 4,-49 8,-56 12,-19 75,-42 136,-49 l 56,-7 v 47 c 0,41 -2,46 -23,46 -39,0 -140,30 -159,47 -17,15 -18,14 -18,-28 z"
       id="path4" />
    <path
       d="m 10,179 c 0,-24 4,-49 8,-56 12,-19 75,-42 136,-49 l 56,-7 v 47 c 0,41 -2,46 -23,46 -39,0 -140,30 -159,47 -17,15 -18,14 -18,-28 z"
       id="path6" />
  </g>
  <g
     aria-label="D"
     transform="matrix(0.75,0,0,0.75,-1,-5.1122159)"
     id="text2307"
     style="white-space:pre;shape-inside:url(#rect2309);fill:#d3dae2;stroke-width:20;stroke-linecap:round;stroke-linejoin:round">
    <path
       d="M 30.936359,75.672354 V 16.490887 h 20.386522 q 6.903159,0 10.5364,0.847757 5.086538,1.170711 8.67941,4.238781 4.682846,3.956196 6.9839,10.132707 2.341421,6.136141 2.341421,14.048533 0,6.741683 -1.574405,11.949328 -1.574404,5.207646 -4.036935,8.639039 -2.462528,3.391027 -5.409492,5.369125 -2.906594,1.937729 -7.064637,2.946963 -4.117674,1.009234 -9.486797,1.009234 z m 7.831655,-6.983897 H 51.40362 q 5.853555,0 9.163844,-1.089972 3.350655,-1.089973 5.328754,-3.068071 2.785484,-2.785486 4.319519,-7.46833 1.574407,-4.723214 1.574407,-11.424527 0,-9.284949 -3.068072,-14.250381 -3.027703,-5.005799 -7.387592,-6.701312 -3.148809,-1.211079 -10.132706,-1.211079 h -12.43376 z"
       style="font-size:53.3333px;font-family:Arial;-inkscape-font-specification:'Arial, Normal';fill:#33383D;fill-opacity:1;stroke-width:31.0038"
       id="path2417" />
  </g>
  <g
     id="Layer_2"
     data-name="Layer 2"
     transform="matrix(0.5741836,0,0,0.5741836,26.232975,15.536803)"
     style="fill:none;fill-opacity:1;stroke:#33383D;stroke-opacity:1">
    <g
       id="g7076"
       transform="matrix(0.36229904,0,0,0.36229904,7.1092851,9.4127239)"
       style="fill:#33383D;fill-opacity:1;stroke:none">

<path
   class="st0"
   d="M 36.6,43.5 C 31.1,49 25.7,54.8 20.7,60.8 15.6,67 8.7,74.5 8,82.7 7.9,84 9.5,85.2 10.7,84.7 18.4,81.6 23.8,73.3 29.3,67.3 36,60 42.9,52.9 50.2,46.3 53,43.8 52.1,39 49,37.2 36.3,30 27,18.8 19.7,6.2 15,-1.9 2.2,5.6 7.2,13.5 c 7.6,12.2 17.4,22.3 29.4,30 z"
   id="path7072"
   style="fill:#33383D;fill-opacity:1;stroke:none" />


<path
   class="st0"
   d="M 72.9,43.5 C 67.3,49 62,54.8 57,60.8 52,67.1 45,74.5 44.3,82.7 44.2,84 45.8,85.2 47,84.7 54.7,81.6 60.1,73.3 65.6,67.3 72.3,60 79.2,52.9 86.5,46.3 89.3,43.8 88.4,39 85.3,37.2 72.6,30 63.3,18.8 56,6.2 51.3,-1.9 38.5,5.6 43.5,13.5 c 7.6,12.2 17.4,22.3 29.4,30 z"
   id="path7074"
   style="fill:#33383D;fill-opacity:1;stroke:none" />


</g>
  </g>
</svg>
